# xmcd CD database file
#
# Track frame offsets:
#	150
#	17570
#	37180
#	60637
#	77272
#	93067
#	107560
#	125427
#	147620
#	167895
#
# Disc length: 2473 seconds
#
# Revision: 2
# Processed by: cddbd v1.4PL0 Copyright (c) Steve Scherf et al.
# Submitted via: CDex 1.40Beta4
#
DISCID=7b09a70a
DTITLE=侯湘婷 - 為你流的淚
DYEAR=1900
DGENRE=Blues
TTITLE0=為你流的淚
TTITLE1=原來的你
TTITLE2=離開愛的日子
TTITLE3=都是真的
TTITLE4=變化
TTITLE5=非吸煙區
TTITLE6=關於永遠
TTITLE7=More and More
TTITLE8=眼睛眨三下
TTITLE9=黑眼圈
EXTD=ID3G:   0
EXTT0=
EXTT1=
EXTT2=
EXTT3=
EXTT4=
EXTT5=
EXTT6=
EXTT7=
EXTT8=
EXTT9=
PLAYORDER=
